<mxfile host="app.diagrams.net" modified="2023-10-16T14:17:46.458Z" agent="Mozilla/5.0 (Windows NT 10.0; Win64; x64) AppleWebKit/537.36 (KHTML, like Gecko) Chrome/118.0.0.0 Safari/537.36" etag="X7JmFxsAImB35RslY4sq" version="22.0.4" type="device">
  <diagram id="C5RBs43oDa-KdzZeNtuy" name="Page-1">
    <mxGraphModel dx="989" dy="546" grid="1" gridSize="10" guides="1" tooltips="1" connect="1" arrows="1" fold="1" page="1" pageScale="1" pageWidth="827" pageHeight="1169" math="0" shadow="0">
      <root>
        <mxCell id="WIyWlLk6GJQsqaUBKTNV-0" />
        <mxCell id="WIyWlLk6GJQsqaUBKTNV-1" parent="WIyWlLk6GJQsqaUBKTNV-0" />
        <mxCell id="WIyWlLk6GJQsqaUBKTNV-2" value="" style="rounded=0;html=1;jettySize=auto;orthogonalLoop=1;fontSize=11;endArrow=block;endFill=0;endSize=8;strokeWidth=1;shadow=0;labelBackgroundColor=none;edgeStyle=orthogonalEdgeStyle;" parent="WIyWlLk6GJQsqaUBKTNV-1" source="WIyWlLk6GJQsqaUBKTNV-3" edge="1">
          <mxGeometry relative="1" as="geometry">
            <mxPoint x="155" y="80" as="targetPoint" />
          </mxGeometry>
        </mxCell>
        <mxCell id="WIyWlLk6GJQsqaUBKTNV-3" value="Start" style="rounded=1;whiteSpace=wrap;html=1;fontSize=12;glass=0;strokeWidth=1;shadow=0;" parent="WIyWlLk6GJQsqaUBKTNV-1" vertex="1">
          <mxGeometry x="100" y="20" width="110" height="20" as="geometry" />
        </mxCell>
        <mxCell id="Hdnl6jBa5hqJ2MWEJxSK-3" style="edgeStyle=orthogonalEdgeStyle;rounded=0;orthogonalLoop=1;jettySize=auto;html=1;exitX=0.5;exitY=1;exitDx=0;exitDy=0;entryX=0.5;entryY=0;entryDx=0;entryDy=0;" edge="1" parent="WIyWlLk6GJQsqaUBKTNV-1" source="Hdnl6jBa5hqJ2MWEJxSK-0" target="Hdnl6jBa5hqJ2MWEJxSK-2">
          <mxGeometry relative="1" as="geometry" />
        </mxCell>
        <mxCell id="Hdnl6jBa5hqJ2MWEJxSK-0" value="Initialize eth_packet" style="rounded=1;whiteSpace=wrap;html=1;" vertex="1" parent="WIyWlLk6GJQsqaUBKTNV-1">
          <mxGeometry x="100" y="80" width="110" height="30" as="geometry" />
        </mxCell>
        <mxCell id="Hdnl6jBa5hqJ2MWEJxSK-5" style="edgeStyle=orthogonalEdgeStyle;rounded=0;orthogonalLoop=1;jettySize=auto;html=1;exitX=0.5;exitY=1;exitDx=0;exitDy=0;entryX=0.5;entryY=0;entryDx=0;entryDy=0;" edge="1" parent="WIyWlLk6GJQsqaUBKTNV-1" source="Hdnl6jBa5hqJ2MWEJxSK-2" target="Hdnl6jBa5hqJ2MWEJxSK-4">
          <mxGeometry relative="1" as="geometry" />
        </mxCell>
        <mxCell id="Hdnl6jBa5hqJ2MWEJxSK-2" value="Set packet lenghts" style="rounded=1;whiteSpace=wrap;html=1;" vertex="1" parent="WIyWlLk6GJQsqaUBKTNV-1">
          <mxGeometry x="100" y="150" width="110" height="30" as="geometry" />
        </mxCell>
        <mxCell id="Hdnl6jBa5hqJ2MWEJxSK-9" style="edgeStyle=orthogonalEdgeStyle;rounded=0;orthogonalLoop=1;jettySize=auto;html=1;exitX=1;exitY=0.5;exitDx=0;exitDy=0;entryX=0;entryY=0.5;entryDx=0;entryDy=0;" edge="1" parent="WIyWlLk6GJQsqaUBKTNV-1" source="Hdnl6jBa5hqJ2MWEJxSK-4" target="Hdnl6jBa5hqJ2MWEJxSK-8">
          <mxGeometry relative="1" as="geometry" />
        </mxCell>
        <mxCell id="Hdnl6jBa5hqJ2MWEJxSK-10" value="No" style="edgeLabel;html=1;align=center;verticalAlign=middle;resizable=0;points=[];" vertex="1" connectable="0" parent="Hdnl6jBa5hqJ2MWEJxSK-9">
          <mxGeometry x="-0.11" y="-2" relative="1" as="geometry">
            <mxPoint as="offset" />
          </mxGeometry>
        </mxCell>
        <mxCell id="Hdnl6jBa5hqJ2MWEJxSK-4" value="Is IEEE Type?" style="rhombus;whiteSpace=wrap;html=1;" vertex="1" parent="WIyWlLk6GJQsqaUBKTNV-1">
          <mxGeometry x="115" y="220" width="80" height="80" as="geometry" />
        </mxCell>
        <mxCell id="Hdnl6jBa5hqJ2MWEJxSK-12" style="edgeStyle=orthogonalEdgeStyle;rounded=0;orthogonalLoop=1;jettySize=auto;html=1;exitX=0.5;exitY=1;exitDx=0;exitDy=0;entryX=0.5;entryY=0;entryDx=0;entryDy=0;" edge="1" parent="WIyWlLk6GJQsqaUBKTNV-1" source="Hdnl6jBa5hqJ2MWEJxSK-8" target="Hdnl6jBa5hqJ2MWEJxSK-11">
          <mxGeometry relative="1" as="geometry" />
        </mxCell>
        <mxCell id="Hdnl6jBa5hqJ2MWEJxSK-8" value="Ethernet II analysis" style="rounded=1;whiteSpace=wrap;html=1;" vertex="1" parent="WIyWlLk6GJQsqaUBKTNV-1">
          <mxGeometry x="284" y="250" width="130" height="20" as="geometry" />
        </mxCell>
        <mxCell id="Hdnl6jBa5hqJ2MWEJxSK-14" style="edgeStyle=orthogonalEdgeStyle;rounded=0;orthogonalLoop=1;jettySize=auto;html=1;exitX=0.5;exitY=1;exitDx=0;exitDy=0;entryX=0.5;entryY=0;entryDx=0;entryDy=0;" edge="1" parent="WIyWlLk6GJQsqaUBKTNV-1" source="Hdnl6jBa5hqJ2MWEJxSK-11" target="Hdnl6jBa5hqJ2MWEJxSK-13">
          <mxGeometry relative="1" as="geometry" />
        </mxCell>
        <mxCell id="Hdnl6jBa5hqJ2MWEJxSK-11" value="Extract mac addresses" style="rounded=1;whiteSpace=wrap;html=1;" vertex="1" parent="WIyWlLk6GJQsqaUBKTNV-1">
          <mxGeometry x="284" y="300" width="131" height="20" as="geometry" />
        </mxCell>
        <mxCell id="Hdnl6jBa5hqJ2MWEJxSK-13" value="Recognized EtherType?" style="rhombus;whiteSpace=wrap;html=1;" vertex="1" parent="WIyWlLk6GJQsqaUBKTNV-1">
          <mxGeometry x="309" y="350" width="91" height="90" as="geometry" />
        </mxCell>
      </root>
    </mxGraphModel>
  </diagram>
</mxfile>
